<svg width="505" height="546" viewBox="0 0 505 546" fill="none" xmlns="http://www.w3.org/2000/svg">
<path opacity="0.4" d="M107.798 649.446C87.4803 636.352 69.5527 620.877 55.2106 603.022C74.3334 597.07 92.2611 588.737 107.798 579.214C128.714 566.12 146.642 550.05 160.984 531.599C170.545 537.551 181.302 542.312 193.851 545.884C209.986 550.05 229.109 552.431 251.817 552.431C374.323 552.431 395.238 483.984 395.238 382.802L395.238 134.608L108.396 134.608L108.396 311.974C108.396 394.706 92.2611 455.415 21.148 475.056C15.7697 476.842 9.19625 478.032 3.22037 479.222C0.830016 464.343 0.232427 448.868 0.232427 433.393L0.232422 0.690674L504.597 0.690668L504.597 433.393C504.597 568.501 423.923 686.943 252.415 686.943C193.254 686.943 145.446 672.659 107.798 649.446Z" fill="#0081FE"/>
</svg>
